#!OML:ASF F:\VICON\USERDATA\INSTALL\rory3\rory3.ASF
:FULLY-SPECIFIED
:DEGREES
55
root 0.6537807619181014 17.879700417270797 20.293552164013885 -2.117753178216998 0.000372059233346711 2.928141481061095
lfemur 5.801556940466137 -1.2750202143464875 -28.054603420138104
ltibia 17.732231727840283
lfoot -11.485256143199637 -0.6143870761959307
ltoes -2.097381236031048
rfemur -26.75117424179673 1.8973802089059841 18.523473222702435
rtibia 37.29086613951297
rfoot -2.8959533184786057 -10.396200023083882
rtoes -2.8100230150904375
lowerback 10.454540211908581 -0.5550087765273262 -2.982753594939874
upperback 0.2954559687888904 -0.6275133930726426 0.943331381585568
thorax -4.958020227209426 -0.3975458743972141 2.694142895954479
lowerneck -16.064788244199647 -2.954015172345578 -2.7050563840853803
upperneck 20.331454394150107 -3.565487306936365 1.772253997936376
head 9.23466883723884 -1.7194319027396876 0.408128715051782
lclavicle -4.519214559199445e-16 -7.8625823340143205e-16
lhumerus -29.061863210453694 0.9335511743376044 79.80265003880363
lradius 26.63795653372027
lwrist 6.976604768271724
lhand -27.871051192635555 22.211285978119992
lfingers 7.12502
lthumb -1.3428369885565434 52.044158623919664
rclavicle -4.529616843639955e-16 -7.762434094032915e-16
rhumerus -31.920994817561485 -19.10344774149443 -77.31025609816004
rradius 27.711652619842543
rwrist 3.342754504972564
rhand -17.68416240333609 22.759225046427392
rfingers 7.12502
rthumb 8.613901223253817 -6.985630415251746
56
root 0.6024139827981123 17.846445732877676 20.90170187696679 -1.3882027074359624 0.5963881156099919 3.185182188451723
lfemur 9.15656662894787 -1.287504851757612 -28.00569344080409
ltibia 13.597502142913676
lfoot -10.587435018251021 -1.313189528765471
ltoes -2.90256247596401
rfemur -25.86287933744612 4.168106389598223 17.35375582123559
rtibia 25.426866192207015
rfoot -3.441048039669419 -10.770651854504536
rtoes -1.7365161035730816
lowerback 10.104513307850006 -0.8073143734351467 -3.5684390232350287
upperback 0.2865962320155028 -0.8324216202874699 0.9987600323819779
thorax -4.80633907304729 -0.5887539125336254 3.134000030336127
lowerneck -16.04529760217426 -2.9728932222111757 -2.793517256834283
upperneck 20.391423385662957 -3.513875115677859 1.7498042185838723
head 9.232826122816114 -1.725020279415954 0.44442204540380564
lclavicle -4.519211122494089e-16 -7.862584541866816e-16
lhumerus -28.807931457261617 1.2061442246961658 79.81315221219157
lradius 27.834050021470723
lwrist 7.3290026120474705
lhand -27.892738152738236 22.180061974691537
lfingers 7.12502
lthumb -1.3451491325061986 52.081157425326396
rclavicle -4.529624021823991e-16 -7.762439599667226e-16
rhumerus -32.43679164167628 -19.902916637602363 -76.52153117554224
rradius 26.748167394992226
rwrist 4.516245052296493
rhand -17.705704558255245 22.826193448155152
rfingers 7.12502
rthumb 8.608658123153791 -6.970463953727183
57
root 0.5353539274398047 17.792069402549675 21.44821321851435 -0.9763086893810133 1.1160295770188777 3.219640522157415
lfemur 11.615784605158252 -1.9426692520091606 -27.589155834557356
ltibia 11.781336151339566
lfoot -9.897757340596455 -2.186418091103918
ltoes -3.6437282671801046
rfemur -25.19384121724696 5.548765753587599 16.775467446987626
rtibia 17.806957452582942
rfoot -3.5540714629180448 -9.927216473336319
rtoes 0.5699929442171356
lowerback 9.814593747338446 -0.9916386030042583 -3.9412322299830356
upperback 0.28861516833019696 -0.9563182958331056 1.0855025854961808
thorax -4.6952053380981855 -0.7454839156123031 3.4741815530176776
lowerneck -16.062724503390395 -2.982511077204404 -2.863774882455186
upperneck 20.446285922124524 -3.4408005182975994 1.634577347121128
head 9.23450610642289 -1.7263652684313442 0.46125048460835927
lclavicle -4.519215676468466e-16 -7.862602251917025e-16
lhumerus -28.820510462586384 1.6641163482411185 79.83695218703366
lradius 28.89236462365175
lwrist 7.6901238635074805
lhand -27.855752163790726 22.290867514981503
lfingers 7.12502
lthumb -1.3242970591567107 52.167808815180656
rclavicle -4.52962520001884e-16 -7.762440198245657e-16
rhumerus -33.04812519333557 -21.090482800156863 -75.69030726235773
rradius 25.518087379746497
rwrist 6.003233454751478
rhand -17.712885516617135 22.879272879496163
rfingers 7.12502
rthumb 8.608640792708455 -6.963865552905068
58
root 0.4594254892692325 17.73651107473603 22.069559814891562 -0.9555211490583115 1.3969717345236488 2.914604230517516
lfemur 13.17864522795279 -3.007516188371534 -26.98697541424071
ltibia 13.016520466701813
lfoot -8.493068499493337 -2.4480045131119557
ltoes -4.293768746259339
rfemur -25.15163274305608 4.732249820221234 17.715021067998684
rtibia 17.49329726477586
rfoot -3.2547089349114184 -8.705047298785576
rtoes 3.353828758449457
lowerback 9.63672707965079 -1.1213002695713665 -4.050257104173939
upperback 0.29861435961624516 -1.0057015980438038 1.208844481408668
thorax -4.638482088411719 -0.8670566276582027 3.6918226309987414
lowerneck -16.118970153630876 -2.974261762345 -2.9055373234686854
upperneck 20.52791354621727 -3.3617753240946975 1.4918392789015993
head 9.243333933340748 -1.7183671848829984 0.46009520890262695
lclavicle -4.519213826841313e-16 -7.862597396014505e-16
lhumerus -28.881296262358525 2.4021516991439675 79.89962473906458
lradius 29.749206020373336
lwrist 7.970243991029893
lhand -27.816287932590015 22.398261483246436
lfingers 7.12502
lthumb -1.3071009897698325 52.23309599333338
rclavicle -4.529628637485617e-16 -7.762442167936518e-16
rhumerus -33.712649904555434 -22.540292685663697 -74.64571102686641
rradius 24.131463545276205
rwrist 7.749201039307772
rhand -17.701263324797505 22.920613039242838
rfingers 7.12502
rthumb 8.618320691248202 -6.967781737626071
59
root 0.37978483489656495 17.70962547035282 22.75036567257327 -1.2559317270417107 1.4453951194063803 2.150840245991179
lfemur 14.129518405798988 -4.338166873282059 -26.257888669848207
ltibia 15.671102633379775
lfoot -7.9551415708776485 -3.3279278070824416
ltoes -4.817148838551067
rfemur -24.95329418967121 3.9394774762379816 19.34796280545004
rtibia 21.70663155915468
rfoot -3.123931041040528 -7.445222219650162
rtoes 5.400661933035136
lowerback 9.569123259965252 -1.2069442889431132 -3.8412722740117227
upperback 0.31188570130920057 -0.988086316668934 1.3738831905071234
thorax -4.636674534520814 -0.9532847403130525 3.7755750832630817
lowerneck -16.17479993804492 -2.9451552295243504 -2.9302777272493015
upperneck 20.64799302452967 -3.281393943633608 1.301920112815879
head 9.24780388204412 -1.7066437782269595 0.4384486211760814
lclavicle -4.519231296118122e-16 -7.862598022440185e-16
lhumerus -29.13013361153033 3.1029929393517977 79.96991657823659
lradius 30.356497092101026
lwrist 8.132382245534355
lhand -27.820171113193375 22.379773986183597
lfingers 7.12502
lthumb -1.2842721135593342 52.320513920991424
rclavicle -4.529626782570773e-16 -7.762440916465868e-16
rhumerus -34.211681888750746 -23.852175911731827 -73.23157784007341
rradius 22.64313971401527
rwrist 9.649407359918596
rhand -17.677810508244544 22.94997914545319
rfingers 7.12502
rthumb 8.617619857803136 -7.008173007326636
60
root 0.30004436886954844 17.727419548092882 23.494171314895638 -1.7328473208399968 1.3739562239631655 0.9584704926209091
lfemur 13.708781715373624 -5.021816587103771 -24.921746679286805
ltibia 20.616731042037728
lfoot -7.359736246963585 -4.254445987398187
ltoes -5.173237795521208
rfemur -24.37494837872052 3.766662884252735 20.914554273224663
rtibia 25.871798472187784
rfoot -3.3243088979445456 -6.389102256036733
rtoes 6.512125927271952
lowerback 9.57270985115127 -1.27042442155592 -3.344788233469955
upperback 0.322716359664312 -0.9194481444776048 1.5756647834412538
thorax -4.686694162574058 -1.001751038573126 3.737624294251236
lowerneck -16.21038348319657 -2.9057520943006296 -2.950268920429751
upperneck 20.811191727253625 -3.203517434396795 1.1200472618412656
head 9.248649681313074 -1.6977910660375435 0.4060573591029166
lclavicle -4.519228127822115e-16 -7.862597720364022e-16
lhumerus -29.73084753812128 3.5046198743757007 79.96913900471716
lradius 30.69196606722274
lwrist 8.098259462225155
lhand -27.784261531721445 22.44076270236601
lfingers 7.12502
lthumb -1.2543879381653498 52.412572987722825
rclavicle -4.529627517712961e-16 -7.762441282450583e-16
rhumerus -34.85977268789853 -25.117480928860605 -72.08025935050898
rradius 21.15528668040608
rwrist 11.439548450831566
rhand -17.658010966463355 22.95068670544466
rfingers 7.12502
rthumb 8.601060659291155 -7.0670180279832335
61
root 0.21906204281245645 17.779731324720217 24.17765907811869 -2.261287010690975 1.224355610935778 -0.46270609015411224
lfemur 11.565808791821647 -4.433039197963151 -22.99250785213725
ltibia 28.67225184718907
lfoot -5.702920005336815 -5.524105768761981
ltoes -5.668093235370559
rfemur -23.046861732665665 3.5732331531293124 22.729083695017966
rtibia 29.1821320369108
rfoot -3.365114336822149 -5.749781839691016
rtoes 6.960819933529913
lowerback 9.634153754339964 -1.3107321670517145 -2.575987055355614
upperback 0.3327418012038965 -0.7961328086955912 1.7958896721099153
thorax -4.778882480891462 -1.0108237478510214 3.5893960094588344
lowerneck -16.21489939983876 -2.8727148889766667 -2.9710753025299708
upperneck 20.971096026749006 -3.1572472174368693 0.9636803220452549
head 9.250702116310816 -1.6968320667167909 0.38517053072837004
lclavicle -4.519244656016356e-16 -7.862614316611116e-16
lhumerus -30.303896130955152 3.7332286454013555 80.0046046095452
lradius 30.75828498518657
lwrist 7.907350112312461
lhand -27.802302098942516 22.363146775498496
lfingers 7.12502
lthumb -1.2547809972696 52.42188672175103
rclavicle -4.529621888605434e-16 -7.762436957440259e-16
rhumerus -35.20202287909417 -25.735694534573234 -71.50780593158623
rradius 19.8950751363277
rwrist 12.646876576574172
rhand -17.646768621865622 22.922806216417467
rfingers 7.12502
rthumb 8.569890894980686 -7.130970401415328
62
root 0.13815697623648288 17.85140974769524 24.852365078834104 -2.7445550520300905 1.0586012909845022 -1.8296426184046335
lfemur 8.029154723743252 -3.382908048895673 -20.684880317024145
ltibia 38.06899798944074
lfoot -4.215552441454768 -6.900812501842912
ltoes -5.986452989090289
rfemur -20.9487589219006 3.6759714966482555 24.665736494588884
rtibia 31.462477695602804
rfoot -3.3387348697420762 -5.127153316150144
rtoes 6.762498659551064
lowerback 9.740675033502892 -1.315612812087753 -1.6203036472365244
upperback 0.34334200507907214 -0.6156425287691658 1.997995073086241
thorax -4.899745754409347 -0.9770759137114483 3.348654527534044
lowerneck -16.185563827876816 -2.8562013463534415 -2.9889345666840406
upperneck 21.104809518784148 -3.1530474563080273 0.9084090707696456
head 9.250381031096211 -1.706095473664983 0.3782852963235575
lclavicle -4.519244285205947e-16 -7.862614088199987e-16
lhumerus -30.91347868092005 3.7054355054743144 80.01030859268356
lradius 30.58433589101849
lwrist 7.694502897308526
lhand -27.819807442016508 22.29802261599096
lfingers 7.12502
lthumb -1.2546668681933564 52.419132107495464
rclavicle -4.529622340143138e-16 -7.762437308577999e-16
rhumerus -35.03390034411642 -25.44703727558408 -71.77565125965052
rradius 19.105395696437807
rwrist 12.888988106988524
rhand -17.64841385044676 22.860692244247854
rfingers 7.12502
rthumb 8.532288112309551 -7.187090345261327
